<?xml version="1.0" encoding="utf-8"?>
<svg version="1.1" id="Layer_1" xmlns="http://www.w3.org/2000/svg" xmlns:xlink="http://www.w3.org/1999/xlink" x="0px" y="0px"
	 viewBox="0 0 1024 1024" style="enable-background:new 0 0 1024 1024;" xml:space="preserve">
<style type="text/css">
	.st0{fill:#41549F;}
	.st1{fill:#6F92CC;}
	.st2{fill:#4A61AA;}
	.st3{fill:#536DB3;}
	.st4{fill:#5B79BB;}
	.st5{fill:#6686C4;}
</style>
<g>
	<g id="logo_00000121958455134664162810000014278278421780782772_">
		<g id="title_00000046297537779015279150000018397851968752353461_" transform="translate(0 0)">

				<g id="t_00000005956690728831325140000005770833086228716725_" transform="translate(0 313.804) translate(277.48319999999995 38.696) scale(1.25) translate(-322.25187 50.4)">
				<path class="st0" d="M193.3,111.9c0,4.8-4,8.8-9.3,8.8c-5.1,0-9.3-4-9.3-8.8V45.2h-20.2c-5,0-9.3-4-9.3-8.9
					c0-4.8,4.2-8.8,9.3-8.8H184c5.6,0,9.3,4,9.3,8.8V111.9z"/>
				<path class="st1" d="M222.8,36.3c0,4.9-4.2,8.9-9.3,8.9c-5.1,0-9.4-4-9.4-8.9c0-4.8,4.2-8.8,9.4-8.8
					C218.6,27.5,222.8,31.5,222.8,36.3z"/>
			</g>
			<path id="r_00000167363885369136438790000004764106520563296135_" class="st0" d="M261.2,487c0-22.6-16.3-37.1-41.3-37.1h-37.7
				c-6.3,0-11.5,5-11.5,11v94.5c0,6,5.3,11,11.5,11c6.5,0,11.7-5,11.7-11v-30h25.4l5.3,7.9c3.4,5.1,10.5,6.6,15.9,3.4
				c10.6-6.5,2.1-17.1,2.1-17.1C254.7,513.1,261.2,501.2,261.2,487z M219.4,506.3H194v-34.9h25.9c12.1,0,18,6.8,18,17
				C238,497.7,233.3,506.3,219.4,506.3z M264.9,555.1c0-6.2-5-11.2-11.5-11.2c-6.3,0-11.5,5-11.5,11.2c0,6,5.3,11,11.5,11
				C259.9,566.1,264.9,561.2,264.9,555.1z"/>
			<path id="y_00000090993300040030543290000000144613511023367062_" class="st2" d="M352.7,495c3.5-5.1,1.9-12-3.5-15.3
				c-5.5-3.1-12.6-1.7-16.1,3.5l-8.7,13.1l-27.5-41.2c-3.4-5.1-10.5-6.6-15.9-3.5c-5.5,3.4-7,10.2-3.7,15.3l35.7,53.2l-0.2,35.2
				c0,6,5.3,11,11.7,11c6.3,0,11.5-5,11.5-11v-35.7L352.7,495z M361.6,449.9c-6.5,0-11.5,5-11.5,11c0,6.2,5,11.2,11.5,11.2
				c6.5,0,11.5-5,11.5-11.2C373.3,454.9,368.1,449.9,361.6,449.9z"/>
			
				<g id="f_00000016764202067500059650000014191304224340068795_" transform="translate(0 313.804) translate(449.4675875 38.696) scale(1.25) translate(-459.83938 50.4)">
				<path class="st0" d="M431.5,45.2v66.7c0,4.8-4.2,8.8-9.4,8.8c-5,0-9.3-4-9.3-8.8V36.3c0-4.8,4.2-8.8,9.3-8.8h47
					c5.1,0,9.3,4,9.3,8.8c0,4.9-4,8.9-9.3,8.9H431.5z"/>
				<path class="st1" d="M450,67.5c5.1,0,9.4,4,9.4,8.9c0,4.8-4.2,8.8-9.4,8.8c-5,0-9.3-4-9.3-8.8C440.8,71.4,445,67.5,450,67.5z"/>
			</g>
			<path id="o_00000155147038088789437960000012579665550228243876_" class="st3" d="M601.3,508c0-18.9-9.1-36.2-24.8-48.1
				c-5-3.7-12.4-2.8-16.3,2c-4,4.7-3.1,11.6,1.9,15.4c10.2,7.5,15.9,18.5,15.9,30.6c0,21.6-18.6,39.3-41.3,39.3
				c-22.7,0-41.2-17.7-41.2-39.3c0-12.2,5.8-23.2,15.8-30.6c5-3.8,5.9-10.8,2.1-15.4c-4-4.8-11.4-5.7-16.3-2
				c-15.8,11.9-24.8,29.1-24.8,48.1c0,33.9,28.9,61.4,64.4,61.4S601.3,541.8,601.3,508z M525.2,458.1c0,6,5.3,11,11.5,11
				c6.5,0,11.7-5,11.7-11c0-6.2-5.3-11.2-11.7-11.2C530.4,446.9,525.2,451.9,525.2,458.1z"/>
			<path id="c_00000046315967222036886110000014789200339442341789_" class="st4" d="M638.6,508.1c0-21.6,18.3-39,41.2-39
				c11.1,0,19.9,3.4,27,7.2c6.5,3.4,13,3.1,16.1-1.3c3.7-5,3.4-11.6-1.6-15.4c-13.3-10.3-29.7-12.5-41.5-12.5
				c-35.6,0-64.4,27.3-64.4,61.2c0,24.6,15.4,45.7,37.7,55.6c8.9,3.8,17.9,5.7,26.8,5.7c10.8,0,14.7-5,14.7-10.5
				c0-5.1-3.5-9.2-11.9-10c-8.6-0.8-15.5-2.7-22.3-6.3C647.2,535.7,638.6,523.1,638.6,508.1L638.6,508.1z M715.4,558.3
				c6.5,0,11.7-5,11.7-11.2c0-6-5.3-11-11.7-11c-6.3,0-11.5,5-11.5,11C703.9,553.4,709.1,558.3,715.4,558.3z"/>
			<path id="u_00000072975182680287466480000009070912816249788817_" class="st5" d="M854.1,494c0-6-5.3-11-11.5-11
				c-6.5,0-11.7,5-11.7,11v23.3c0,14.4-7.8,30-30.1,30c-27.3,0-30.1-20.8-30.1-30v-56.4c0-6-5.3-11-11.7-11c-6.3,0-11.5,5-11.5,11
				v56.4c0,31.1,21.6,52,53.3,52c36.8,0,53.3-27,53.3-52V494z M842.4,472.1c6.3,0,11.5-5,11.5-11.2c0-6-5.3-11-11.5-11
				c-6.5,0-11.7,5-11.7,11C830.7,467,836,472.1,842.4,472.1z"/>
			<path id="s_00000004511900699669065110000007735548754071702149_" class="st1" d="M968.7,535.7c0-20.5-19.8-29.4-42.2-37.6
				c-18.2-6.6-24.4-11.2-24.4-16.4c0-8.2,8.3-14,19.9-14c13.5,0,20.8,6.9,23.9,9.6c4.4,3.7,10.6,4.1,14.9-0.8
				c3.1-3.8,3.7-9.2,0.6-13.1c-4.6-6.2-18.2-16.4-38.7-16.4c-18,0-28.4,6.3-34,11.6c-6.5,6.3-10,14.4-10,23.2
				c0.2,22.8,24.4,29.6,40.5,35.1c17.9,6.2,26.1,10.6,26.1,17.7c0,5.8-3.7,10-8.6,12.2c-6.3,2.8-12.7,0.8-18.8,0.4
				c-5.8-0.3-10.6,3.5-10.6,10.5c0,8.5,12.3,11.9,21.4,11.9C956.6,569.4,968.7,552.1,968.7,535.7L968.7,535.7z M888.3,531.9
				c-6.3,0-11.5,4.8-11.5,11s5.3,11,11.5,11c6.5,0,11.7-4.8,11.7-11S894.8,531.9,888.3,531.9z"/>
		</g>
		<g>
		</g>
	</g>
</g>
</svg>
